<svg id="visual" viewBox="0 0 900 600" width="900" height="600" xmlns="http://www.w3.org/2000/svg" xmlns:xlink="http://www.w3.org/1999/xlink" version="1.1"><path d="M0 356L21.5 357.2C43 358.3 86 360.7 128.8 360.2C171.7 359.7 214.3 356.3 257.2 363.8C300 371.3 343 389.7 385.8 396.3C428.7 403 471.3 398 514.2 393C557 388 600 383 642.8 380.8C685.7 378.7 728.3 379.3 771.2 378C814 376.7 857 373.3 878.5 371.7L900 370L900 601L878.5 601C857 601 814 601 771.2 601C728.3 601 685.7 601 642.8 601C600 601 557 601 514.2 601C471.3 601 428.7 601 385.8 601C343 601 300 601 257.2 601C214.3 601 171.7 601 128.8 601C86 601 43 601 21.5 601L0 601Z" fill="#fa7268"></path><path d="M0 446L21.5 440.5C43 435 86 424 128.8 428.8C171.7 433.7 214.3 454.3 257.2 456.5C300 458.7 343 442.3 385.8 429C428.7 415.7 471.3 405.3 514.2 411C557 416.7 600 438.3 642.8 447.8C685.7 457.3 728.3 454.7 771.2 450.5C814 446.3 857 440.7 878.5 437.8L900 435L900 601L878.5 601C857 601 814 601 771.2 601C728.3 601 685.7 601 642.8 601C600 601 557 601 514.2 601C471.3 601 428.7 601 385.8 601C343 601 300 601 257.2 601C214.3 601 171.7 601 128.8 601C86 601 43 601 21.5 601L0 601Z" fill="#ef5f67"></path><path d="M0 487L21.5 486.5C43 486 86 485 128.8 476.8C171.7 468.7 214.3 453.3 257.2 447.2C300 441 343 444 385.8 453.8C428.7 463.7 471.3 480.3 514.2 480.5C557 480.7 600 464.3 642.8 456C685.7 447.7 728.3 447.3 771.2 451.2C814 455 857 463 878.5 467L900 471L900 601L878.5 601C857 601 814 601 771.2 601C728.3 601 685.7 601 642.8 601C600 601 557 601 514.2 601C471.3 601 428.7 601 385.8 601C343 601 300 601 257.2 601C214.3 601 171.7 601 128.8 601C86 601 43 601 21.5 601L0 601Z" fill="#e34c67"></path><path d="M0 515L21.5 519.5C43 524 86 533 128.8 527.5C171.7 522 214.3 502 257.2 499C300 496 343 510 385.8 513C428.7 516 471.3 508 514.2 509.3C557 510.7 600 521.3 642.8 519C685.7 516.7 728.3 501.3 771.2 498.3C814 495.3 857 504.7 878.5 509.3L900 514L900 601L878.5 601C857 601 814 601 771.2 601C728.3 601 685.7 601 642.8 601C600 601 557 601 514.2 601C471.3 601 428.7 601 385.8 601C343 601 300 601 257.2 601C214.3 601 171.7 601 128.8 601C86 601 43 601 21.5 601L0 601Z" fill="#d53867"></path><path d="M0 561L21.5 555.7C43 550.3 86 539.7 128.8 538.5C171.7 537.3 214.3 545.7 257.2 546.8C300 548 343 542 385.8 542.2C428.7 542.3 471.3 548.7 514.2 554.7C557 560.7 600 566.3 642.8 568.7C685.7 571 728.3 570 771.2 562.3C814 554.7 857 540.3 878.5 533.2L900 526L900 601L878.5 601C857 601 814 601 771.2 601C728.3 601 685.7 601 642.8 601C600 601 557 601 514.2 601C471.3 601 428.7 601 385.8 601C343 601 300 601 257.2 601C214.3 601 171.7 601 128.8 601C86 601 43 601 21.5 601L0 601Z" fill="#c62368"></path></svg>